<?xml version="1.0" encoding="utf-8"?>
<!-- Generator: Adobe Illustrator 19.2.1, SVG Export Plug-In . SVG Version: 6.00 Build 0)  -->
<svg version="1.1" id="Layer_1" xmlns="http://www.w3.org/2000/svg" xmlns:xlink="http://www.w3.org/1999/xlink" x="0px" y="0px"
	 viewBox="0 0 1024 256" style="enable-background:new 0 0 1024 256;" xml:space="preserve">
<style type="text/css">
	.st0{fill:#FFFFFF;}
	.st1{font-family:'ArialMT';}
	.st2{font-size:128px;}
</style>
<title>Inverse</title>
<desc>Created with Sketch.</desc>
<text transform="matrix(1 0 0 1 329 169)" class="st0 st1 st2">Backstroke</text>
<path class="st0" d="M240,0H16C7.2,0,0,7.2,0,16v224c0,8.8,7.2,16,16,16h224c8.8,0,16-7.2,16-16V16C256,7.2,248.8,0,240,0z M240,230
	c0,5.5-4.5,10-10,10H26c-5.5,0-10-4.5-10-10V26c0-5.5,4.5-10,10-10h204c5.5,0,10,4.5,10,10V230z"/>
<path class="st0" d="M206.5,71.9c-4.6-4.3-10.1-1.8-13.3,5.9c-0.8,1.9-2.8,8.8-4.5,15.2s-4.6,14.8-6.5,18.5
	c-3.1,6.1-8.6,22.9-8.6,26c0,1.6-2.1,1.6-4.4-0.1c-1.8-1.3-1.8-1.8,0.4-14.6c1.2-7.3,2.7-14.7,3.2-16.4c1-3.2,5.3-38.5,6.9-55.6
	c1.1-12.5-0.6-16-8.3-16c-2.8,0-4.4,0.6-6.3,2.6c-1.3,1.5-2.5,3.1-2.5,3.5c0,5.8-5.7,39-8,46.3c-1.6,5.3-3.7,14.6-4.6,20.8
	c-1.9,13.1-2.8,15.8-5,15.8c-1.8,0-1.6-4.2,1.2-23.8c1.1-7.9,1.2-11.8,0.4-16.9c-0.6-3.6-1-17.5-0.9-30.7
	c0.1-23.7,0.1-24.1-2.1-25.9c-1.4-1.1-3.9-1.8-6.5-1.8c-3.5,0-4.7,0.5-6.8,3c-2.9,3.4-3.2,5.2-4.7,31.5c-0.6,9.9-1.5,22.1-1.9,27
	c-0.5,5-0.9,14.4-1,21c-0.1,15.5-0.4,16.5-4.6,16.5c-2.2,0-3.7-0.6-4.3-1.8c-0.5-1-1.3-7.9-1.7-15.3c-0.4-7.4-1.3-15.7-2.1-18.5
	c-0.7-2.8-2.3-13.7-3.4-24.3c-1.9-18.4-3.6-25.7-6.3-27.4c-2.2-1.4-7.4-0.8-9.6,1.1c-1.2,1-2.6,3.3-3.1,5.1c-1.1,4-0.5,50.4,1,70.3
	c0.6,8.1,0.9,15.1,0.6,15.5c-0.3,0.4-0.9,5.1-1.5,10.4c-1.1,9.9-5.5,25.8-7.1,25.8c-2.9,0-6.2-3-9.6-8.8c-4.9-8.4-8.4-15.9-8.4-18
	c0-3.3-6.2-14-11.1-19.1c-5.5-5.7-10.9-8.5-14.4-7.6c-3.5,0.9-3.6,4.1-0.4,12.7c1.8,5,3.2,10.9,3.6,16.1c0.6,7.1,1.3,9.6,5.5,17.9
	c2.6,5.3,6.5,14.6,8.5,20.7c2,6.1,5.1,13.1,6.8,15.6c15.8,23.3,22.5,32.7,25.9,36.9c2.6,3.2,4.4,5.9,5.8,8.9h78.7
	c1.5-5.7,3.8-12.8,7.1-22.6c5.9-17.3,8.4-30.6,11.2-59.6c0.5-5.7,2.3-14.1,4.4-21c3.4-11.1,9.2-31.9,12-42.8c0.7-2.9,1.6-8.6,2-12.6
	C208.7,74.5,208.6,73.8,206.5,71.9z"/>
</svg>
